<?xml version="1.0" encoding="utf-8"?>
<svg version="1.0" xmlns="http://www.w3.org/2000/svg" width="200.000000pt" height="200.000000pt" viewBox="0 0 200.000000 200.000000" preserveAspectRatio="xMidYMid meet">
  <g transform="matrix(0.089055, 0, 0, -0.086222, 1.911588, 174.247314)" fill="#000000" stroke="none" style="">
    <path d="M775 1836 c-18 -24 -37 -36 -63 -41 -20 -3 -55 -15 -77 -25 -22 -10 -65 -21 -96 -23 -128 -11 -223 -107 -250 -252 -9 -49 -8 -59 12 -93 l22 -38 -31 -65 c-17 -36 -38 -92 -47 -125 -19 -72 -32 -224 -19 -224 23 1 32 21 38 96 8 97 26 169 62 248 22 49 28 56 36 42 9 -16 11 -16 25 3 17 26 33 19 33 -15 0 -30 10 -30 40 1 l23 24 17 -22 c21 -25 16 -44 -7 -25 -13 10 -20 7 -44 -22 l-28 -35 -12 34 c-11 32 -13 33 -26 15 -20 -27 -73 -140 -73 -156 1 -39 41 -98 84 -123 25 -15 46 -28 46 -30 0 -1 -13 -5 -29 -7 -17 -2 -29 0 -28 6 4 22 -35 16 -75 -12 -24 -16 -58 -37 -76 -46 -18 -10 -31 -23 -29 -29 2 -7 -5 -32 -16 -56 -23 -52 -26 -50 101 -87 89 -26 95 -30 109 -63 28 -64 41 -86 67 -105 25 -19 26 -19 73 3 l48 22 55 -19 c51 -18 55 -21 52 -48 -5 -49 -9 -54 -40 -48 -27 5 -30 2 -50 -44 -29 -66 -28 -80 6 -99 l29 -17 -14 -70 c-7 -39 -11 -76 -9 -82 2 -6 26 -17 52 -23 46 -12 48 -11 70 16 18 22 22 24 18 8 -10 -46 4 -50 183 -49 203 0 344 26 378 69 14 17 27 23 42 19 23 -6 111 36 139 67 16 18 18 17 55 -4 l38 -22 56 55 c82 81 83 83 30 121 -25 18 -45 36 -45 39 0 4 16 33 35 65 69 116 98 216 114 396 5 63 17 135 26 160 9 24 19 51 21 60 7 21 -21 32 -46 19 -16 -9 -20 -4 -35 45 -55 191 -204 370 -387 465 -83 44 -98 47 -98 25 0 -8 28 -28 63 -46 185 -90 342 -275 391 -463 l15 -59 -29 -36 c-16 -20 -52 -95 -80 -167 -47 -122 -98 -214 -119 -214 -5 0 -14 21 -20 47 -7 26 -42 104 -78 173 l-65 125 26 9 c31 12 32 20 7 69 l-19 38 33 13 c53 23 54 31 1 100 -5 8 3 24 25 45 l33 33 -31 28 c-17 15 -39 32 -49 38 -18 10 -18 12 4 50 33 60 30 67 -41 93 -71 25 -110 68 -96 104 4 11 8 34 8 52 1 43 -26 57 -95 49 -41 -5 -63 -1 -100 15 -27 11 -75 22 -107 24 -35 2 -66 10 -76 19 -28 25 -58 19 -86 -18z m59 -5 c3 -4 -6 -13 -19 -19 -27 -12 -33 -4 -13 16 14 14 25 15 32 3z m116 -37 c-50 -8 -106 -26 -138 -46 -49 -30 -32 -32 26 -3 35 17 66 25 104 25 66 0 103 -28 148 -110 19 -35 30 -48 30 -35 0 36 -44 109 -79 132 -19 13 -29 23 -24 23 19 0 127 -86 174 -138 51 -57 99 -148 105 -202 4 -27 0 -22 -14 21 -10 31 -33 76 -50 101 -32 47 -101 113 -109 105 -2 -3 4 -22 15 -44 26 -50 36 -121 23 -155 -9 -24 -16 -28 -51 -28 -22 0 -54 9 -71 19 -30 19 -31 19 -10 30 11 7 27 24 34 39 38 74 25 140 -34 184 -69 51 -135 47 -203 -13 -25 -22 -61 -46 -82 -55 -36 -15 -36 -16 -15 -30 12 -9 32 -37 46 -64 36 -71 62 -87 153 -94 95 -8 122 -21 138 -66 l12 -35 1 33 c1 25 5 32 22 32 25 0 60 -18 76 -39 17 -22 16 -121 -1 -162 -20 -48 -53 -87 -88 -105 -16 -8 -75 -19 -131 -24 -100 -8 -136 -18 -228 -59 -77 -35 -141 -44 -206 -31 -111 23 -173 72 -173 137 0 31 2 33 15 19 39 -38 177 -54 277 -32 118 26 182 63 283 159 49 48 93 87 97 87 4 0 9 -10 11 -22 3 -15 5 -9 6 14 1 29 -4 41 -23 53 -22 15 -27 14 -82 -15 -126 -65 -222 -61 -381 15 -99 48 -164 66 -207 58 -24 -5 -25 -3 -19 33 3 22 14 55 24 74 l18 35 1 -32 c0 -18 5 -33 10 -33 6 0 10 17 10 38 0 47 20 77 68 101 51 25 104 33 167 26 44 -6 52 -10 47 -24 -5 -14 -4 -15 15 -1 94 68 118 83 151 95 20 7 60 13 87 13 28 0 39 -2 25 -4z m254 -33 c8 -12 -41 -23 -65 -16 -11 4 -17 11 -14 16 8 12 72 12 79 0z m-491 -8 c-7 -2 -19 -2 -25 0 -7 3 -2 5 12 5 14 0 19 -2 13 -5z m262 -43 c33 -13 58 -69 49 -115 -11 -60 -70 -102 -125 -90 -31 7 -79 57 -79 82 0 9 10 1 23 -18 41 -62 128 -42 126 29 0 15 -3 21 -6 15 -7 -18 -52 -16 -59 2 -8 21 16 47 38 42 29 -8 21 11 -13 32 -42 26 -8 41 46 21z m-179 -130 c24 -60 65 -90 124 -90 61 0 104 33 122 93 6 24 13 35 15 25 2 -9 -3 -32 -11 -51 -21 -51 -126 -123 -126 -87 0 6 -13 10 -29 10 -15 0 -40 9 -55 21 -29 23 -83 119 -66 119 6 0 17 -18 26 -40z m559 -31 c5 -5 -1 -9 -17 -9 -14 0 -32 7 -39 17 -13 15 -11 16 16 9 17 -4 34 -12 40 -17z m-948 -129 c3 -16 -13 -47 -21 -40 -2 3 -8 18 -12 34 -6 24 -4 27 12 24 10 -2 20 -10 21 -18z m-54 -16 c-8 -21 -23 -17 -23 6 0 13 5 18 14 14 8 -3 12 -12 9 -20z m134 -1 c2 -5 -8 -19 -21 -32 l-24 -23 -7 31 c-3 17 -4 35 0 40 7 12 47 -1 52 -16z m903 -14 c0 -7 -31 -21 -36 -17 -1 2 -6 16 -10 32 l-7 29 26 -19 c15 -10 27 -22 27 -25z m-83 -51 c-2 -13 -4 -3 -4 22 0 25 2 35 4 23 2 -13 2 -33 0 -45z m-755 41 l20 -11 -21 -19 c-25 -24 -41 -17 -41 17 0 26 11 30 42 13z m78 -47 c0 -10 -22 -32 -32 -32 -4 0 -8 14 -8 30 0 28 2 30 20 20 11 -6 20 -14 20 -18z m260 -1 c0 -17 -18 -21 -24 -6 -3 9 0 15 9 15 8 0 15 -4 15 -9z m-170 -9 c0 -4 -8 -18 -17 -31 -16 -23 -17 -23 -24 -5 -13 34 -10 44 16 44 14 0 25 -3 25 -8z m90 -4 c0 -7 -5 -20 -10 -28 -9 -13 -11 -13 -20 0 -14 21 -12 28 8 33 9 3 18 5 20 6 1 0 2 -5 2 -11z m-250 -36 c0 -5 -10 -14 -22 -20 -13 -6 -42 -23 -65 -37 -48 -30 -54 -23 -17 18 19 22 28 26 38 18 10 -8 17 -6 31 9 19 21 35 26 35 12z m825 -30 c-6 -7 -35 18 -35 31 0 5 9 2 20 -8 11 -10 18 -20 15 -23z m-982 -34 c17 -39 12 -58 -14 -58 -14 0 -19 7 -19 29 0 29 8 61 16 61 2 0 10 -15 17 -32z m416 -9 c-18 -11 -22 -5 -14 22 7 20 8 21 17 4 8 -12 7 -20 -3 -26z m-55 -30 c-2 -4 -13 -9 -24 -12 -21 -5 -24 3 -13 42 l6 24 18 -24 c9 -13 16 -26 13 -30z m-259 -26 c5 -19 2 -23 -14 -23 -15 0 -21 6 -21 23 0 45 21 44 35 0z m166 -6 c-5 -5 -16 -7 -24 -5 -11 2 -12 9 -5 28 9 24 10 24 24 6 8 -12 10 -24 5 -29z m-231 12 c0 -11 -4 -18 -10 -14 -5 3 -7 12 -3 20 7 21 13 19 13 -6z m143 -9 c4 -16 0 -20 -20 -20 -13 0 -22 3 -20 8 2 4 7 15 10 25 8 22 22 15 30 -13z m768 -13 c12 -22 12 -22 -10 -3 -11 11 -21 23 -21 28 0 14 19 -1 31 -25z m404 -47 c-14 -27 -38 -101 -54 -163 -29 -112 -54 -174 -93 -230 -11 -15 -23 -25 -28 -22 -4 3 -13 -2 -20 -10 -13 -15 -40 -21 -40 -8 0 3 8 15 18 26 17 20 17 20 -10 2 -39 -24 -35 -9 8 33 37 36 92 141 138 268 22 59 85 154 102 154 2 0 -7 -22 -21 -50z m-714 -70 c10 -19 21 -43 24 -53 4 -17 12 -13 68 26 69 49 115 64 146 47 31 -16 28 -50 -4 -50 -14 0 -25 -4 -25 -8 0 -5 13 -9 29 -9 39 0 76 -25 106 -72 29 -46 60 -138 69 -201 5 -34 -1 -24 -23 43 -29 88 -72 167 -91 167 -5 0 -1 -15 10 -32 26 -46 52 -155 45 -188 -9 -41 -43 -50 -185 -48 -84 1 -132 -2 -147 -10 -13 -7 -23 -10 -23 -8 0 3 14 12 30 21 35 18 41 40 8 31 -13 -3 -34 -9 -47 -12 -37 -11 -16 15 28 33 41 18 26 30 -18 15 -46 -16 -59 7 -16 26 39 18 69 15 101 -10 25 -20 40 -23 127 -23 69 0 91 3 75 9 -81 33 -91 41 -111 85 -20 44 -21 45 -28 21 -4 -14 -7 -42 -8 -63 -1 -26 -5 -37 -13 -35 -13 4 -91 114 -100 140 -4 10 -9 10 -24 -3 -10 -9 -46 -32 -79 -52 -33 -20 -66 -41 -74 -46 -13 -8 -12 -15 4 -51 18 -40 18 -41 -1 -55 -61 -44 -59 -37 -34 -86 13 -24 36 -63 52 -86 l29 -43 -37 0 c-47 0 -156 19 -174 30 -11 7 -11 22 4 97 20 103 68 253 98 303 20 35 20 35 0 17 -11 -10 -39 -60 -63 -111 l-42 -93 -69 20 c-60 18 -68 23 -68 45 0 21 3 24 28 19 105 -21 93 -25 130 47 19 36 52 82 75 102 37 34 41 36 48 18 6 -16 8 -15 8 7 1 15 -6 43 -14 63 -16 39 -16 39 30 49 11 3 44 4 74 4 50 -2 54 -4 72 -37z m-216 -14 c16 -23 15 -26 -32 -73 -26 -26 -59 -69 -73 -95 -14 -27 -32 -48 -41 -48 -30 0 -79 22 -79 36 0 7 -11 21 -25 30 -18 12 -23 22 -19 39 4 18 0 24 -21 29 -45 11 -12 36 49 36 34 1 79 12 136 35 47 18 86 34 87 34 2 1 10 -10 18 -23z m-469 -31 c-11 -8 -24 -15 -30 -15 -5 0 -1 7 10 15 10 8 24 14 29 14 6 0 1 -6 -9 -14z m147 -4 c17 -6 17 -8 3 -20 -20 -17 -50 -10 -54 12 -4 18 18 22 51 8z m-62 -33 c0 -18 3 -28 5 -22 6 13 94 -4 94 -19 0 -5 -10 -23 -22 -40 -12 -17 -16 -27 -7 -22 12 8 12 6 0 -8 -7 -9 -19 -17 -25 -17 -6 0 -28 -9 -49 -20 -20 -11 -37 -17 -37 -13 0 5 -4 3 -8 -4 -5 -8 -30 6 -77 44 l-70 55 65 -61 c60 -56 63 -61 35 -55 -43 8 -155 45 -155 50 0 15 32 64 41 64 8 0 8 5 -1 14 -9 12 -3 19 40 41 29 15 54 24 56 22 2 -2 26 2 52 9 64 17 62 18 63 -18z m125 -123 c8 -32 1 -161 -9 -172 -13 -13 -27 20 -15 35 9 10 7 21 -6 43 -18 30 -17 31 3 53 35 38 23 42 -16 5 -39 -37 -40 -18 0 31 27 36 35 37 43 5z m490 9 c-3 -8 -2 -12 4 -9 5 3 16 -9 25 -27 l16 -33 -20 25 c-20 24 -20 24 -14 3 4 -19 1 -23 -20 -23 -14 0 -43 -15 -67 -35 -23 -19 -45 -35 -49 -35 -12 0 -33 52 -24 61 15 14 138 89 147 89 4 0 5 -7 2 -16z m-586 -43 c0 -6 -10 -17 -22 -26 -28 -19 -40 1 -12 22 21 15 34 17 34 4z m-5 -66 c-21 -17 -31 -21 -37 -12 -8 13 26 36 52 36 9 0 4 -9 -15 -24z m1232 3 c-3 -8 -6 -5 -6 6 -1 11 2 17 5 13 3 -3 4 -12 1 -19z m-1219 -57 c-22 -19 -38 -19 -38 -1 0 13 54 40 58 29 2 -5 -7 -18 -20 -28z m500 -7 c2 -10 9 -23 16 -29 7 -5 15 -18 19 -28 6 -15 15 -17 56 -13 44 4 52 1 65 -19 15 -22 13 -24 -45 -60 -33 -20 -63 -34 -66 -31 -4 3 -2 6 3 6 5 0 20 10 34 21 l25 21 -35 -21 c-19 -11 -35 -25 -35 -31 0 -12 -24 -30 -41 -30 -12 0 -114 149 -114 166 0 13 92 75 105 71 5 -2 12 -12 13 -23z m661 -65 c-18 -34 -35 -57 -37 -51 -4 12 59 124 66 117 2 -2 -11 -31 -29 -66z m-1139 41 c-6 -11 -15 -18 -21 -14 -6 4 -6 11 2 20 17 21 31 17 19 -6z m1095 -146 c41 -31 75 -59 75 -62 0 -3 -5 -1 -12 6 -7 7 -17 12 -22 12 -6 -1 0 -10 13 -21 17 -14 26 -16 31 -8 5 6 10 7 13 2 3 -5 -20 -36 -53 -68 l-59 -58 -83 43 c-46 23 -87 46 -92 51 -8 7 96 159 110 159 2 0 38 -25 79 -56z m-249 13 c2 -7 -2 -32 -11 -56 -8 -24 -15 -47 -15 -51 0 -4 24 -22 52 -40 l53 -32 -29 -15 c-27 -14 -40 -14 -77 2 -13 5 -20 -2 -29 -29 -8 -26 -18 -36 -41 -41 -48 -11 -49 -4 -5 105 4 10 -7 22 -34 38 -22 12 -40 18 -40 12 0 -5 -18 -13 -40 -16 -58 -10 -65 -29 -7 -21 40 6 47 4 52 -13 8 -25 -1 -40 -25 -40 -25 0 -50 -10 -50 -21 0 -5 21 -8 48 -6 44 2 47 0 50 -24 3 -25 0 -26 -73 -39 -41 -7 -78 -11 -80 -8 -6 5 -35 172 -35 199 0 12 24 21 98 36 85 18 100 19 124 7 36 -19 38 -18 38 10 0 39 63 75 76 43z m-610 -52 c52 -15 112 -25 150 -25 52 0 68 -4 90 -23 33 -28 37 -76 9 -107 -17 -19 -17 -21 9 -54 14 -19 26 -37 26 -40 0 -3 -18 -6 -40 -6 -33 0 -42 4 -54 28 -8 16 -22 34 -30 41 -14 12 -16 8 -16 -28 0 -42 -1 -42 -32 -39 l-33 3 -3 88 -3 87 -29 0 c-31 0 -38 -14 -56 -112 -5 -30 -11 -38 -28 -38 -44 0 -48 11 -32 84 19 82 20 96 3 96 -27 0 -50 26 -43 48 9 27 7 27 112 -3z" style="paint-order: fill; fill-rule: nonzero; stroke: rgb(186, 218, 85); fill: rgb(255, 117, 20);"/>
    <path d="M604 1615 c7 -26 -2 -38 -44 -61 -25 -13 -30 -19 -18 -22 25 -5 75 24 81 47 3 11 -2 28 -10 38 -13 17 -14 17 -9 -2z" style="paint-order: fill; fill-rule: nonzero; stroke: rgb(186, 218, 85); fill: rgb(255, 117, 20);"/>
    <path d="M515 1589 c-47 -41 -44 -52 8 -32 44 17 70 40 61 54 -10 17 -33 9 -69 -22z" style="paint-order: fill; fill-rule: nonzero; stroke: rgb(186, 218, 85); fill: rgb(255, 117, 20);"/>
    <path d="M939 761 c-20 -16 -22 -22 -11 -42 l12 -24 -6 24 c-5 18 0 29 17 42 13 10 21 19 18 19 -4 0 -17 -8 -30 -19z" style="paint-order: fill; fill-rule: nonzero; stroke: rgb(186, 218, 85); fill: rgb(255, 117, 20);"/>
    <path d="M920 625 c-6 -8 -9 -19 -5 -25 10 -16 45 7 39 25 -8 19 -18 19 -34 0z" style="paint-order: fill; fill-rule: nonzero; stroke: rgb(186, 218, 85); fill: rgb(255, 117, 20);"/>
    <path d="M1114 566 c4 -11 0 -24 -11 -33 -16 -13 -16 -13 5 -3 25 12 26 18 11 40 -9 12 -10 12 -5 -4z" style="paint-order: fill; fill-rule: nonzero; stroke: rgb(186, 218, 85); fill: rgb(255, 117, 20);"/>
    <path d="M963 560 c-13 -5 -23 -14 -23 -19 0 -15 23 -26 28 -13 2 7 10 12 18 12 9 0 13 4 10 9 -4 5 0 12 6 14 9 4 8 5 -2 6 -8 0 -25 -4 -37 -9z" style="paint-order: fill; fill-rule: nonzero; stroke: rgb(186, 218, 85); fill: rgb(255, 117, 20);"/>
    <path d="M1065 560 c3 -5 8 -10 11 -10 2 0 4 5 4 10 0 6 -5 10 -11 10 -5 0 -7 -4 -4 -10z" style="paint-order: fill; fill-rule: nonzero; stroke: rgb(186, 218, 85); fill: rgb(255, 117, 20);"/>
    <path d="M940 501 c5 -11 15 -23 21 -27 6 -3 3 5 -6 20 -20 30 -30 35 -15 7z" style="paint-order: fill; fill-rule: nonzero; stroke: rgb(186, 218, 85); fill: rgb(255, 117, 20);"/>
    <path d="M1465 460 c-44 -58 -53 -90 -23 -90 10 0 10 2 -1 9 -11 7 -11 12 -2 22 6 8 25 33 42 56 27 37 34 42 57 36 24 -6 26 -5 13 10 -22 28 -38 20 -86 -43z" style="paint-order: fill; fill-rule: nonzero; stroke: rgb(186, 218, 85); fill: rgb(255, 117, 20);"/>
    <path d="M1596 455 c25 -19 40 -19 24 0 -7 8 -20 15 -28 15 -13 0 -12 -3 4 -15z" style="paint-order: fill; fill-rule: nonzero; stroke: rgb(186, 218, 85); fill: rgb(255, 117, 20);"/>
    <path d="M1578 413 c23 -5 30 -27 10 -39 -6 -4 -17 1 -25 11 -11 16 -13 16 -13 3 0 -20 38 -34 52 -20 18 18 4 47 -22 49 -22 1 -22 1 -2 -4z" style="paint-order: fill; fill-rule: nonzero; stroke: rgb(186, 218, 85); fill: rgb(255, 117, 20);"/>
    <path d="M1625 360 c-29 -29 -41 -37 -48 -27 -7 9 -10 9 -14 0 -3 -9 -10 -10 -24 -3 -10 6 -19 8 -19 6 0 -3 14 -13 30 -21 30 -16 31 -15 78 29 26 24 44 47 41 50 -3 3 -23 -12 -44 -34z" style="paint-order: fill; fill-rule: nonzero; stroke: rgb(186, 218, 85); fill: rgb(255, 117, 20);"/>
    <path d="M880 329 c0 -15 5 -20 22 -17 34 5 37 38 4 38 -20 0 -26 -5 -26 -21z" style="paint-order: fill; fill-rule: nonzero; stroke: rgb(186, 218, 85); fill: rgb(255, 117, 20);"/>
    <path d="M250 737 c0 -11 52 -129 74 -167 42 -75 130 -174 202 -228 76 -57 84 -60 84 -34 -1 9 -21 33 -46 52 -93 72 -180 176 -229 274 -26 52 -53 97 -62 100 -17 7 -23 7 -23 3z" style="paint-order: fill; fill-rule: nonzero; stroke: rgb(186, 218, 85); fill: rgb(255, 117, 20);"/>
    <path d="M340 700 c0 -22 71 -147 97 -171 l26 -24 -28 45 c-16 25 -38 70 -51 100 -20 50 -44 77 -44 50z" style="paint-order: fill; fill-rule: nonzero; stroke: rgb(186, 218, 85); fill: rgb(255, 117, 20);"/>
    <path d="M490 542 c0 -5 14 -21 32 -38 l31 -29 -28 38 c-28 38 -35 44 -35 29z" style="paint-order: fill; fill-rule: nonzero; stroke: rgb(186, 218, 85); fill: rgb(255, 117, 20);"/>
  </g>
</svg>